<svg width="399" height="100" viewBox="0 0 399 100" fill="none" xmlns="http://www.w3.org/2000/svg">
<path d="M4.30859 14.366C4.76729 17.656 6.65655 20.629 6.65655 24.3653C6.65655 28.2581 6.38222 31.925 7.56964 35.6511C8.98889 40.1047 7.83053 46.5869 7.83053 51.2056C7.83053 61.4412 4.30859 71.3902 4.30859 81.2036C4.30859 85.2883 6.65655 88.7774 6.65655 92.7817C6.65655 101.246 29.313 97.5183 36.006 97.5183C60.5046 97.5183 85.1447 96.4657 109.836 96.4657C203.869 96.4657 297.671 93.308 391.656 93.308C396.572 93.308 391.721 82.1825 391.721 79.0985C391.721 72.8437 392.953 67.3276 394.004 61.2049C395.813 50.6626 393.551 39.6906 392.895 29.1019C392.772 27.1191 390.547 26.1784 390.547 24.3069C390.547 22.2855 389.802 19.8457 388.46 18.3424C386.603 16.2613 384.801 11.1943 383.503 8.57693C378.032 -2.46104 366.704 3.84041 356.241 3.84041C344.856 3.84041 333.597 7.52379 322.457 6.99809C299.721 5.92524 276.478 6.7399 253.714 4.36669C217.122 0.551946 180.383 1.32858 143.621 3.31413C122.574 4.45085 101.022 4.03516 80.0954 6.17943C63.2816 7.90227 45.2661 8.05065 28.3751 8.05065C20.5108 8.05065 12.8269 12.2609 4.30859 12.2609" stroke="black" stroke-width="3" stroke-linecap="round"/>
<path d="M13.9147 96.1953C15.9817 93.9215 18.8505 90.8501 21.5874 89.4816M8.1601 96.1953C9.83019 93.0406 13.8901 90.1374 16.7919 88.2028M7.20101 91.7195C8.48762 91.5765 8.99195 89.4588 10.0783 88.8422C12.0237 87.738 13.8528 86.3155 15.8328 85.3255M4.96313 85.9649C6.99836 85.5579 8.41652 82.9344 10.3269 82.1996C11.2946 81.8274 12.0626 80.9765 12.9556 80.5301M4.32373 79.8907C6.87173 77.4768 10.55 76.8195 13.2753 74.7755M4.64343 73.4967C6.97576 73.0303 9.37237 70.3441 11.3571 69.021M5.92222 66.1437C7.4916 66.1437 9.17375 63.9364 10.4157 63.1243C11.5789 62.3638 12.7046 61.3138 13.9147 60.7088M6.88131 59.43C9.02882 57.5211 12.2134 56.5147 14.5541 54.9543M8.1601 51.1179C9.10271 51.0132 10.1056 49.7125 10.8598 49.1997C11.9903 48.4309 13.2632 47.3921 14.5541 46.9618M7.52071 46.0027C7.94303 45.9499 8.50784 45.0237 8.7995 44.7239C9.93963 43.5521 11.4286 42.4705 12.4405 41.225C13.135 40.3703 14.7401 40.1958 15.1934 39.2891M8.4798 39.2891C8.94437 37.8954 12.2408 36.3677 13.3996 35.6303C14.6069 34.862 15.9348 34.3191 17.1116 33.5345M6.24192 33.5345C7.56311 33.5345 9.48058 31.721 10.6999 31.1723C11.5981 30.7681 12.4518 30.4296 13.2753 30.0178M5.92222 27.78C7.67307 27.5854 9.52512 25.7033 11.0374 24.9027C11.9542 24.4173 12.7 23.7517 13.595 23.3042M5.60252 22.0254C6.81651 20.9463 8.49016 20.2577 9.90068 19.4678C11.066 18.8152 13.6438 17.7716 14.2344 16.5905M4.96313 17.2299C6.01038 17.1136 9.60504 15.6189 10.0783 14.6724M24.7844 97.1544C25.3727 97.089 25.8354 96.4658 26.3473 96.1953C28.2494 95.1899 29.9666 94.0061 31.7822 92.8562C33.1883 91.9656 34.2938 90.7082 35.6541 89.8013M20.6283 96.515C21.5092 96.4048 23.0082 93.7665 23.843 93.1404C25.2259 92.1033 26.999 90.3419 28.6207 89.8013M38.2117 96.8346C38.7213 94.2864 42.9825 92.3753 44.9253 91.0801M49.2274 97.0929C49.7479 97.0278 51.0749 94.618 51.71 94.1211C53.3524 92.8357 54.8772 91.1693 56.7294 90.2432M60.9696 96.4405C61.5485 96.3119 61.9332 95.4761 62.4193 95.1358C63.2897 94.5265 64.0952 93.8683 64.9562 93.2513C66.6189 92.0597 68.5996 91.1578 70.4286 90.2432M74.6689 95.7882C76.5377 93.7117 78.7768 91.1571 81.5185 90.2432M87.3896 95.462C88.2983 95.3484 89.9505 93.1994 90.5789 92.5989C91.4468 91.7695 92.4482 90.949 93.5869 90.5694M102.394 95.462C102.605 93.5597 106.609 90.1429 108.265 89.5909M110.222 94.8096C110.852 94.7309 112.543 92.4499 113.085 91.9466C114.07 91.0318 115.197 90.7859 116.093 89.5909M120.659 94.8096C121.261 94.7344 121.94 93.6693 122.29 93.2513C123.525 91.7751 124.784 90.1376 126.53 89.2647M133.054 94.8096C134.605 94.4994 136.312 92.4953 137.838 91.8016C139.671 90.9683 143.004 89.6695 144.144 87.96M151.229 96.0554C151.414 94.388 154.087 91.8517 155.545 91.1228M161.094 95.4388C162.447 95.2885 167.328 90.9867 167.877 89.8896M175.276 95.4388C175.48 93.6004 178.841 90.9152 180.208 89.8896M186.99 94.8222C187.162 93.4495 191.2 89.7196 192.54 89.2731M199.322 94.8222C200.333 94.6958 200.469 93.1257 200.898 92.3902C201.767 90.9003 203.463 89.5012 204.871 88.6565M211.037 94.8222C213.619 92.2399 216.476 89.9996 219.052 87.4233M225.835 95.4388C227.221 95.1306 228.093 92.3023 228.917 91.2598C230.272 89.5469 232.022 88.5658 233.85 87.4233M239.399 94.8222C241.423 92.7979 242.544 88.6256 244.948 87.4233M252.964 93.5891L252.998 93.5548C254.949 91.6043 256.663 89.8897 259.13 88.6565M266.528 93.5891C269.185 90.9322 269.573 88.0527 273.311 86.8068M280.71 92.9725C283.117 90.5649 284.216 86.0491 287.492 84.957M298.59 92.9725C300.298 91.051 303.61 89.7144 304.756 87.4233M308.455 93.5891C311.433 93.2169 313.639 88.6565 317.087 88.6565M326.336 92.3559C329.692 89.3724 333.901 87.9293 337.434 85.5736M342.983 92.9725C346.494 92.5824 349.092 88.0399 352.849 88.0399M359.631 91.7393C360.874 91.584 362.871 89.3738 363.947 88.6565C366.126 87.2036 367.483 86.1902 370.113 86.1902M373.812 92.3559C376.541 92.6591 375.603 93.0391 377.477 90.5405C378.604 89.0379 381.209 87.4264 381.828 86.1902M34.0803 96.6719C34.2039 95.5602 35.8739 93.0287 36.5466 92.3559M44.5621 96.6719C45.598 95.5065 45.8823 93.5891 47.6449 93.5891M126.575 97.01C126.732 95.4353 128.842 92.0938 130.357 91.3362M140.948 97.01C141.719 96.9137 142.176 95.3238 142.482 94.7615C143.047 93.7264 144.047 93.1368 144.731 92.2818C145.579 91.2212 146.945 90.0401 148.135 89.4449M157.213 95.8752C157.262 96.2619 160.039 92.0717 160.534 90.9579C161.108 89.6663 162.019 88.763 163.265 87.9319M170.452 95.4969C171.521 93.2265 172.35 90.6976 173.857 88.6884M179.315 96.0173C180.729 94.4465 182.921 91.9536 183.811 90.1733M192.802 96.0173C192.934 94.958 194.638 93.3367 195.049 92.1713C195.567 90.7042 196.654 89.6616 197.297 88.3752M205.389 95.5678C208.19 92.4858 210.014 88.6949 213.031 85.6779M218.425 94.6687C218.606 93.0387 222.461 89.2813 223.82 88.3752M81.394 96.3582C81.394 94.4551 84.1879 93.566 84.9883 91.9652M94.1737 96.7576C95.1385 95.6721 95.8923 94.3551 96.7696 93.1855C97.3351 92.4314 98.2658 92.0691 98.5667 91.1664M69.413 96.7576C69.413 94.9056 72.8242 91.3606 74.6048 90.7671M54.6365 96.3582C54.8202 94.7049 57.9111 92.4623 59.1183 91.2552C59.9862 90.3873 60.9438 89.6515 61.8251 88.7702M384.277 93.5301C384.277 89.6716 389.223 88.2407 390.245 85.1751M368.761 93.1322C369.082 91.5278 371.322 89.6713 372.342 88.579C373.85 86.9627 375.553 85.545 377.116 83.9816M352.847 93.1322C353.044 91.5555 356.545 89.4312 357.643 88.5569C359.726 86.8981 361.898 84.5785 364.385 83.5837M336.137 93.5301C341.108 88.0622 347.537 84.5697 353.245 80.003M319.029 93.1322C319.029 91.5991 320.988 90.6035 321.991 89.6841C324.986 86.9392 328.082 84.3782 331.363 81.9923M289.153 94.6766C292.629 90.7665 294.797 85.677 298.55 81.9234M273.044 95.3478C273.298 92.8102 276.979 88.3463 279.085 87.2931M258.277 95.3478C260.217 94.9168 262.751 90.6715 263.945 89.3441C266.34 86.6833 268.812 84.6584 271.702 82.5946M246.195 94.0053C246.195 91.3524 248.096 89.644 248.88 87.2931M232.1 94.6766C234.153 92.366 236.197 89.7225 238.141 87.2931" stroke="black" stroke-opacity="0.66" stroke-linecap="round"/>
</svg>
